<?xml version="1.0" encoding="utf-8"?>
<!-- Generator: Adobe Illustrator 15.0.2, SVG Export Plug-In . SVG Version: 6.00 Build 0)  -->
<!DOCTYPE svg PUBLIC "-//W3C//DTD SVG 1.1//EN" "http://www.w3.org/Graphics/SVG/1.1/DTD/svg11.dtd">
<svg version="1.1" id="Layer_1" xmlns="http://www.w3.org/2000/svg" xmlns:xlink="http://www.w3.org/1999/xlink" x="0px" y="0px"
	 width="19px" height="19px" viewBox="0 0 19 19" enable-background="new 0 0 19 19" xml:space="preserve">
<path fill="#FFFFFF" d="M9.5,1.712c2.537,0,2.837,0.009,3.839,0.055c0.926,0.042,1.429,0.197,1.764,0.327
	c0.444,0.172,0.76,0.378,1.093,0.71c0.332,0.333,0.538,0.649,0.71,1.092c0.13,0.335,0.285,0.838,0.327,1.764
	c0.045,1.002,0.055,1.302,0.055,3.839s-0.01,2.837-0.055,3.839c-0.042,0.926-0.197,1.429-0.327,1.764
	c-0.172,0.444-0.378,0.76-0.71,1.093c-0.333,0.332-0.649,0.538-1.093,0.71c-0.334,0.13-0.837,0.285-1.764,0.327
	c-1.002,0.045-1.302,0.055-3.839,0.055s-2.837-0.01-3.839-0.055c-0.926-0.042-1.429-0.197-1.764-0.327
	c-0.443-0.172-0.76-0.378-1.092-0.71c-0.332-0.333-0.538-0.649-0.71-1.093c-0.13-0.334-0.285-0.837-0.327-1.764
	C1.721,12.337,1.712,12.037,1.712,9.5s0.009-2.837,0.055-3.839c0.042-0.926,0.197-1.429,0.327-1.764
	c0.172-0.443,0.378-0.76,0.71-1.092c0.333-0.333,0.649-0.538,1.092-0.71c0.335-0.13,0.838-0.285,1.764-0.327
	C6.663,1.721,6.963,1.712,9.5,1.712 M9.5,0C6.92,0,6.596,0.011,5.583,0.057C4.572,0.104,3.881,0.264,3.277,0.499
	C2.652,0.742,2.122,1.067,1.594,1.595C1.066,2.123,0.741,2.653,0.498,3.278C0.263,3.882,0.103,4.572,0.057,5.583
	C0.01,6.596,0,6.92,0,9.5s0.011,2.903,0.057,3.917c0.046,1.011,0.207,1.702,0.441,2.306c0.243,0.625,0.568,1.155,1.096,1.683
	c0.528,0.528,1.058,0.853,1.683,1.096c0.604,0.235,1.295,0.396,2.306,0.442C6.596,18.989,6.92,19,9.5,19s2.903-0.011,3.917-0.057
	c1.011-0.046,1.702-0.207,2.306-0.442c0.625-0.243,1.155-0.567,1.683-1.096c0.528-0.528,0.853-1.058,1.096-1.683
	c0.235-0.604,0.395-1.295,0.441-2.306C18.989,12.404,19,12.08,19,9.5s-0.011-2.904-0.057-3.917
	c-0.046-1.011-0.207-1.702-0.441-2.306c-0.243-0.625-0.568-1.155-1.096-1.683c-0.528-0.528-1.058-0.853-1.683-1.096
	c-0.604-0.235-1.295-0.395-2.306-0.441C12.403,0.011,12.08,0,9.5,0L9.5,0z"/>
<path fill="#FFFFFF" d="M9.5,4.622c-2.694,0-4.878,2.184-4.878,4.878s2.184,4.878,4.878,4.878s4.878-2.184,4.878-4.878
	S12.194,4.622,9.5,4.622z M9.5,12.667c-1.749,0-3.167-1.417-3.167-3.167S7.751,6.333,9.5,6.333s3.167,1.418,3.167,3.167
	S11.249,12.667,9.5,12.667z"/>
<circle fill="#FFFFFF" cx="14.571" cy="4.429" r="1.14"/>
</svg>
