<?xml version="1.0" encoding="utf-8"?>
<!-- Generator: Adobe Illustrator 15.0.2, SVG Export Plug-In . SVG Version: 6.00 Build 0)  -->
<!DOCTYPE svg PUBLIC "-//W3C//DTD SVG 1.1//EN" "http://www.w3.org/Graphics/SVG/1.1/DTD/svg11.dtd">
<svg version="1.1" id="Layer_1" xmlns="http://www.w3.org/2000/svg" xmlns:xlink="http://www.w3.org/1999/xlink" x="0px" y="0px"
	 width="19px" height="19px" viewBox="0 0 19 19" enable-background="new 0 0 19 19" xml:space="preserve">
<path fill="#FFFFFF" d="M17.593,0H1.402C0.628,0,0,0.613,0,1.37v16.259C0,18.386,0.628,19,1.402,19h16.191
	C18.369,19,19,18.386,19,17.629V1.37C19,0.613,18.369,0,17.593,0z M5.635,16.19H2.817V7.123h2.818V16.19z M4.227,5.884
	c-0.903,0-1.634-0.732-1.634-1.635c0-0.901,0.731-1.633,1.634-1.633c0.901,0,1.633,0.732,1.633,1.633
	C5.86,5.151,5.127,5.884,4.227,5.884z M16.19,16.19h-2.816v-4.41c0-1.052-0.02-2.404-1.464-2.404c-1.467,0-1.691,1.146-1.691,2.328
	v4.486H7.402V7.123h2.704v1.239h0.038c0.376-0.713,1.295-1.464,2.666-1.464c2.854,0,3.38,1.878,3.38,4.319V16.19z"/>
</svg>
