<?xml version="1.0" encoding="utf-8"?>
<!-- Generator: Adobe Illustrator 15.0.2, SVG Export Plug-In  -->
<!DOCTYPE svg PUBLIC "-//W3C//DTD SVG 1.1//EN" "http://www.w3.org/Graphics/SVG/1.1/DTD/svg11.dtd" [
	<!ENTITY ns_flows "http://ns.adobe.com/Flows/1.0/">
]>
<svg version="1.1"
	 xmlns="http://www.w3.org/2000/svg" xmlns:xlink="http://www.w3.org/1999/xlink" xmlns:a="http://ns.adobe.com/AdobeSVGViewerExtensions/3.0/"
	 x="0px" y="0px" width="42px" height="19px" viewBox="0 0 42 19" enable-background="new 0 0 42 19" xml:space="preserve">
<defs>
</defs>
<path fill="#FFFFFF" d="M6.011,12.475c-0.398,1.238-0.5,2.585-1.001,3.729c-0.297,0.827-0.798,1.557-1.299,2.277
	C3.619,18.692,3.415,19,3.118,19c-0.603-2.383,0.093-4.555,0.501-6.631c0.194-0.827,0.398-1.759,0.593-2.691
	C4.314,9.37,4.416,9.053,4.416,8.851c0-0.413-0.306-0.836-0.306-1.25c0-0.932,0.102-1.864,0.501-2.479
	C5.01,4.604,5.715,3.978,6.716,4.286c0.695,0.212,0.992,1.039,0.899,1.971c-0.102,0.729-0.305,1.345-0.501,1.97
	C6.809,9.158,6.41,9.879,6.716,10.715c0.195,0.721,1.196,1.24,2.3,1.028c0.695-0.202,1.298-0.826,1.595-1.346
	c1.104-1.758,1.596-5.487,0.204-7.141c-0.704-0.73-1.706-1.249-2.8-1.355C5.511,1.701,3.619,2.739,2.71,4.498
	c-0.695,1.345-0.798,3.315-0.093,4.45c0.093,0.21,0.297,0.316,0.398,0.624c0,0.212-0.102,0.625-0.102,0.826
	c-0.103,0.212-0.103,0.52-0.297,0.626c-0.705,0-1.002-0.414-1.4-0.722C0.419,9.467-0.082,7.919,0.011,6.573
	c0.204-3.632,3.301-6.217,6.705-6.535c2.198-0.202,3.793,0.423,4.998,1.355c1.196,0.933,2.393,2.373,2.598,4.344
	c0.194,2.183-0.502,4.354-1.401,5.699c-1.104,1.557-3.7,3.211-5.897,1.971C6.512,13.099,6.41,12.888,6.011,12.475"/>
<path fill="#FFFFFF" d="M17.111,3.67c0.695-0.105,1.197,0.308,1.298,0.934c0.103,1.028-0.603,1.864-1.4,1.969
	c-0.797,0.203-1.696-0.423-1.502-1.557C15.711,4.392,16.406,3.766,17.111,3.67"/>
<path fill="#FFFFFF" d="M33.988,3.766c0.909-0.201,1.521,0.318,1.613,1.039c0.093,1.144-1.093,2.277-2.207,1.864
	c-0.797-0.308-0.89-1.653-0.186-2.384C33.395,3.978,33.599,3.873,33.988,3.766"/>
<path fill="#FFFFFF" d="M40.795,3.873c0.093,0.625-0.204,1.144-0.297,1.663c-0.093,0.519-0.297,1.134-0.39,1.653
	C40.591,7.4,41.593,7.083,42,7.4c-0.111,0.615-0.204,1.134-0.407,1.548c-0.482,0.105-1.299,0-1.893,0
	c-0.202,0.316-0.202,0.836-0.296,1.249c-0.204,0.827-0.408,1.652-0.594,2.585c-0.223,0.827-0.519,1.865,0.39,1.971
	c0.686,0.104,1.205-0.625,1.502-0.933c0.298,0.212,0.595,0.413,0.891,0.625c-0.482,1.134-2.003,2.278-3.599,2.172
	c-0.797,0-1.483-0.413-1.706-1.24c-0.594,0.52-1.187,1.038-1.984,1.135c-1.095,0.105-2.207-0.202-2.801-0.721
	c-0.204-0.212-0.594-0.624-0.594-1.038c-0.11-0.625,0.186-1.346,0.297-2.067c0.186-0.729,0.297-1.354,0.408-1.873
	c0.297-1.345,0.482-2.586,0.983-3.623c0.611-0.106,1.613-0.106,2.096,0c0,0.624-0.185,1.144-0.297,1.662
	c-0.297,1.134-0.482,2.066-0.798,3.316c-0.093,0.518-0.39,1.239-0.296,1.758c0.092,0.414,0.908,0.827,1.391,0.625
	c0.815-0.211,1.298-1.038,1.595-1.769c0.52-1.038,0.705-2.797,1.113-3.931c-0.408-0.211-1.206,0.097-1.503-0.105
	c0-0.52,0.204-1.038,0.297-1.557c0.408-0.203,1.002-0.106,1.614-0.106c0.296-0.614,0.389-1.547,0.593-2.374
	c0.093-0.211,0.093-0.624,0.186-0.73c0.223-0.212,1.112-0.308,1.613-0.413C40.294,3.873,40.591,3.766,40.795,3.873"/>
<path fill="#FFFFFF" d="M27.508,14.752c0.193,0.308,0.499,0.519,0.592,0.826c-0.695,1.346-3.598,1.864-4.292,0.317
	c-0.502-1.144,0-2.489,0.296-3.729c0.102-0.318,0.204-0.731,0.306-1.144c0.093-0.414,0.194-0.933,0.093-1.24
	c-0.194-0.836-1.298-0.836-1.994-0.316c-1.001,0.624-1.205,2.181-1.604,3.632c-0.195,0.614-0.297,1.346-0.399,1.864
	c-0.194,0.615-0.194,1.346-0.5,1.76c-0.696,0-1.493,0.104-2.097,0c-0.102-0.309,0.103-0.626,0.103-0.933
	c-0.103,0-0.204,0.105-0.204,0.201c-0.501,0.52-1.502,1.144-2.698,0.933c-1.104-0.097-1.596-0.933-1.503-2.374
	c0-0.519,0.204-1.144,0.399-1.769c0.307-1.134,0.501-2.384,0.807-3.518c0.194-0.624,0.297-1.249,0.501-1.663
	c0.491-0.096,1.696-0.201,2.197,0c0,0.52-0.204,1.039-0.306,1.663c-0.297,1.346-0.695,2.691-0.992,4.248
	c-0.103,0.721-0.307,1.759,0.797,1.548c0.195,0,0.501-0.203,0.696-0.308c1.205-0.933,1.604-3.421,2.003-5.383
	c0.194-0.729,0.297-1.354,0.603-1.864c0.594-0.105,1.595-0.105,2.096,0c0.102,0.308-0.102,0.51-0.102,0.827
	c0.203,0,0.306-0.212,0.398-0.317c0.398-0.308,1.104-0.722,1.799-0.722c1.604-0.104,2.698,0.933,2.605,2.586
	c-0.102,0.73-0.306,1.557-0.501,2.288c-0.203,0.825-0.5,1.652-0.398,2.277C26.208,14.963,27.006,15.167,27.508,14.752"/>
</svg>
