<?xml version="1.0" encoding="utf-8"?>
<!-- Generator: Adobe Illustrator 15.0.2, SVG Export Plug-In  -->
<!DOCTYPE svg PUBLIC "-//W3C//DTD SVG 1.1//EN" "http://www.w3.org/Graphics/SVG/1.1/DTD/svg11.dtd" [
	<!ENTITY ns_flows "http://ns.adobe.com/Flows/1.0/">
]>
<svg version="1.1"
	 xmlns="http://www.w3.org/2000/svg" xmlns:xlink="http://www.w3.org/1999/xlink" xmlns:a="http://ns.adobe.com/AdobeSVGViewerExtensions/3.0/"
	 x="0px" y="0px" width="109px" height="80px" viewBox="0 0 109 80" enable-background="new 0 0 109 80" xml:space="preserve">
<defs>
</defs>
<g>
	<defs>
		<rect id="SVGID_1_" width="108.572" height="80"/>
	</defs>
	<clipPath id="SVGID_2_">
		<use xlink:href="#SVGID_1_"  overflow="visible"/>
	</clipPath>
	<path clip-path="url(#SVGID_2_)" fill="#FFFFFF" d="M69.607,66.757l-5.996-0.012V13.27l6.056,0.012
		c5.003,0.011,8.358,1.27,10.563,3.959c2.149,2.624,3.145,6.585,3.133,12.466l0.003,20.687c-0.013,5.884-1.199,10.04-3.628,12.706
		C77.496,65.562,74.182,66.757,69.607,66.757 M65.04,65.32l4.567,0.009c8.619,0,12.308-4.467,12.33-14.938l-0.002-20.687
		c0.012-5.533-0.881-9.205-2.811-11.559c-1.912-2.334-4.918-3.426-9.461-3.437L65.039,14.7L65.04,65.32z"/>
	<path clip-path="url(#SVGID_2_)" fill="#FFFFFF" d="M70.312,80h-0.003l-0.135-0.003l-21.618-0.003l0.001-79.982L70.348,0
		c9.15,0.02,15.82,2.119,20.388,6.417c4.86,4.572,7.371,11.623,7.677,21.556l-0.023,24.195c-0.348,9.927-2.883,16.949-7.75,21.493
		C86.071,77.926,79.422,80,70.312,80 M49.984,78.566l20.324,0.003c17.789,0.004,26.01-8.147,26.652-26.427l0.023-24.148
		C96.42,9.667,88.204,1.467,70.346,1.428l-20.36,0.012L49.984,78.566z"/>
	<path clip-path="url(#SVGID_2_)" fill="#FFFFFF" d="M104.299,9.307c-2.045,0-3.604-1.548-3.604-3.605
		c0-2.021,1.559-3.581,3.604-3.581c2.021,0,3.58,1.561,3.58,3.581C107.879,7.759,106.32,9.307,104.299,9.307 M104.297,9.997
		c2.326,0,4.275-1.847,4.275-4.296c0-2.425-1.949-4.272-4.275-4.272c-2.336,0-4.295,1.848-4.295,4.272
		C100.002,8.15,101.961,9.997,104.297,9.997 M103.402,3.876h1.037c0.814,0,1.121,0.231,1.121,0.74c0,0.67-0.377,0.786-1.309,0.786
		h-0.85V3.876z M103.402,6.047h0.79l1.356,2.196h0.929l-1.377-2.219c0.635-0.092,1.235-0.473,1.235-1.374
		c0-0.947-0.588-1.42-1.766-1.42h-1.943v5.013h0.775V6.047z"/>
	<path clip-path="url(#SVGID_2_)" fill="#FFFFFF" d="M40.309,13.263H25.706V0h14.603V13.263z M27.134,11.835H38.88V1.428H27.134
		V11.835z"/>
	<path clip-path="url(#SVGID_2_)" fill="#FFFFFF" d="M40.309,80H25.706V21.711h14.603V80z M27.134,78.572H38.88V23.139H27.134
		V78.572z"/>
	<path clip-path="url(#SVGID_2_)" fill="#FFFFFF" d="M9.775,6.24c0-0.493-0.022-1.077-0.066-1.436l6.702-1.971l0.002-2.821
		L9.083,2.36C8.658,1.42,7.606,0.412,5.004,0.41C1.552,0.409,0.231,1.998,0.229,5.115L0.228,9.014l16.181,0.007l0.001-2.776
		L9.775,6.24z M2.512,6.237L2.513,5.25c0-1.503,0.562-2.063,2.49-2.063c1.929,0.001,2.489,0.562,2.489,2.064L7.491,6.239
		L2.512,6.237z M4.211,18.388c-1.211,0-1.793-0.36-1.793-1.481c0.001-1.122,0.583-1.48,1.794-1.479l8.207,0.003
		c1.211,0.001,1.793,0.359,1.793,1.481c-0.001,1.121-0.585,1.48-1.795,1.479L4.211,18.388z M12.484,21.167
		c2.286,0.002,4.145-1.342,4.146-4.255c0.001-2.914-1.857-4.258-4.143-4.26l-8.341-0.003C1.861,12.648,0.001,13.99,0,16.905
		c-0.001,2.913,1.857,4.258,4.143,4.259L12.484,21.167z M16.402,25.182L0.221,25.178L0.22,27.954l16.181,0.007L16.402,25.182z
		 M9.762,37.427c0-0.494-0.023-1.077-0.067-1.437l6.703-1.971l0.001-2.822l-7.33,2.35c-0.425-0.941-1.477-1.949-4.078-1.95
		c-3.453-0.002-4.774,1.587-4.776,4.704l-0.001,3.897l16.181,0.007l0.001-2.775L9.762,37.427z M2.499,37.708v-0.986
		c0.002-1.503,0.562-2.063,2.491-2.063c1.928,0.001,2.489,0.563,2.488,2.066L7.477,37.71L2.499,37.708z M16.394,43.347l-2.418-0.002
		l-0.002,4.977l-4.755-0.002l0.001-3.587H6.801L6.8,48.318l-4.172-0.002l0.003-4.662l-2.419-0.001l-0.003,7.439L16.39,51.1
		L16.394,43.347z M16.387,59.146l0.001-2.777L2.625,56.363l0.001-2.689l-2.418-0.001l-0.003,8.156l2.418,0.001l0.001-2.689
		L16.387,59.146z M16.382,70.688L6.274,70.684v-0.045l10.11-3.54l0.001-2.418L0.204,64.674l-0.002,2.508l9.256,0.003v0.045
		L0.2,70.613l-0.001,2.575l16.182,0.007L16.382,70.688z M16.379,77.201L0.198,77.203L0.197,79.98l16.181,0.001L16.379,77.201z"/>
</g>
</svg>
