<?xml version="1.0" encoding="utf-8"?>
<!-- Generator: Adobe Illustrator 15.0.0, SVG Export Plug-In . SVG Version: 6.00 Build 0)  -->
<!DOCTYPE svg PUBLIC "-//W3C//DTD SVG 1.1//EN" "http://www.w3.org/Graphics/SVG/1.1/DTD/svg11.dtd">
<svg version="1.1" xmlns="http://www.w3.org/2000/svg" xmlns:xlink="http://www.w3.org/1999/xlink" x="0px" y="0px" width="280px"
	 height="56px" viewBox="0 0 280 56" enable-background="new 0 0 280 56" xml:space="preserve">
<g id="Layer_2">
</g>
<g id="Layer_1">
	<polygon fill="#FFFFFF" points="114.619,55.662 114.619,49.65 115.066,49.65 115.066,55.25 118.595,55.25 118.595,55.662 	"/>
	<path fill="#FFFFFF" d="M126.798,52.652c0-1.482-1.082-2.701-2.57-2.701c-1.482,0-2.546,1.201-2.546,2.688v0.014
		c0,1.488,1.079,2.707,2.567,2.707c1.483,0,2.549-1.201,2.549-2.688V52.652z M124.228,55.766c-1.818,0-3.015-1.455-3.015-3.094
		v-0.02c0-1.639,1.214-3.105,3.036-3.105c1.82,0,3.008,1.451,3.008,3.092c0.014,0.01,0.014,0.01,0,0.014
		C127.257,54.293,126.05,55.766,124.228,55.766"/>
	<polygon fill="#FFFFFF" points="135.339,55.662 131.103,50.32 131.103,55.662 130.673,55.662 130.673,49.65 131.097,49.65 
		135.245,54.879 135.245,49.65 135.675,49.65 135.675,55.662 	"/>
	<path fill="#FFFFFF" d="M144.161,52.652c0-1.42-1.058-2.59-2.729-2.59h-1.556v5.188h1.556c1.671,0,2.729-1.145,2.729-2.578V52.652z
		 M141.432,55.662h-2.003V49.65h2.003c1.887,0,3.192,1.297,3.192,2.988v0.014C144.625,54.348,143.319,55.662,141.432,55.662"/>
	<path fill="#FFFFFF" d="M152.863,52.652c0-1.482-1.076-2.701-2.567-2.701c-1.481,0-2.548,1.201-2.548,2.688v0.014
		c0,1.488,1.08,2.707,2.565,2.707c1.487,0,2.55-1.201,2.55-2.688V52.652z M150.295,55.766c-1.815,0-3.012-1.455-3.012-3.094v-0.02
		c0-1.639,1.21-3.105,3.029-3.105c1.823,0,3.016,1.451,3.016,3.092c0.007,0.01,0.007,0.01,0,0.014
		C153.329,54.293,152.117,55.766,150.295,55.766"/>
	<polygon fill="#FFFFFF" points="161.406,55.662 157.171,50.32 157.171,55.662 156.74,55.662 156.74,49.65 157.164,49.65 
		161.308,54.879 161.308,49.65 161.738,49.65 161.738,55.662 	"/>
	<polygon fill="#FFFFFF" points="0.423,7.744 0.167,7.744 0.167,33.133 16.21,33.133 16.21,32.877 0.423,32.877 	"/>
	<polygon fill="#FFFFFF" points="16.377,33.301 0,33.301 0,7.578 0.591,7.578 0.591,32.709 16.377,32.709 	"/>
	<path fill="#FFFFFF" d="M28.93,24.686l7.383-16.896l7.382,16.896H28.93z M36.144,7.531L24.917,33.133h0.303l3.584-8.193h15.018
		l3.584,8.193h0.301L36.484,7.531H36.144z"/>
	<path fill="#FFFFFF" d="M29.185,24.518h14.252L36.313,8.207L29.185,24.518z M47.96,33.301h-0.666l-3.582-8.193H28.91l-3.582,8.193
		h-0.662l0.102-0.234L36.033,7.365h0.559L47.96,33.301z"/>
	<polygon fill="#FFFFFF" points="79.873,32.92 61.269,7.531 61.013,7.531 61.013,33.133 61.269,33.133 61.269,7.961 79.873,33.346 
		80.125,33.346 80.125,7.744 79.873,7.744 	"/>
	<polygon fill="#FFFFFF" points="80.294,33.516 79.785,33.516 79.735,33.445 61.436,8.469 61.436,33.301 60.845,33.301 
		60.845,7.365 61.355,7.365 79.706,32.408 79.706,7.578 80.294,7.578 	"/>
	<path fill="#FFFFFF" d="M100.945,19.82c-3.544-1.666-6.188-2.986-6.188-6.654c0-3.502,2.818-5.377,6.188-5.377
		c2.219,0,4.568,1.066,5.975,2.602v-0.342c-1.365-1.449-3.67-2.518-5.975-2.518c-3.544,0-6.443,1.963-6.443,5.635
		c0,3.752,2.604,5.16,6.357,6.91c3.628,1.666,6.912,3.158,6.912,6.783c0,4.014-3.158,6.232-7.341,6.232
		c-2.645,0-5.033-1.109-6.523-2.775v0.385c1.448,1.537,3.798,2.645,6.523,2.645c4.356,0,7.597-2.303,7.597-6.486
		C108.027,23.064,104.613,21.486,100.945,19.82"/>
	<path fill="#FFFFFF" d="M100.43,33.512c-2.568,0-5.052-1.008-6.649-2.695l-0.045-0.049v-0.889l0.294,0.324
		c1.522,1.707,3.92,2.719,6.4,2.719c4.36,0,7.171-2.379,7.171-6.063c0-3.506-3.139-4.941-6.771-6.611l-0.037-0.02
		c-3.903-1.816-6.459-3.289-6.459-7.063c0-3.469,2.659-5.801,6.61-5.801c2.233,0,4.626,1.01,6.096,2.568l0.045,0.051v0.834
		l-0.291-0.314c-1.419-1.549-3.713-2.547-5.85-2.547c-2.996,0-6.02,1.609-6.02,5.209c0,3.465,2.311,4.73,6.09,6.504
		c3.693,1.676,7.182,3.256,7.182,7.189C108.197,30.902,105.146,33.512,100.43,33.512"/>
	<polygon fill="#FFFFFF" points="122.615,20.248 135.29,20.248 135.29,19.988 122.615,19.988 122.615,8.004 135.8,8.004 
		135.8,7.744 122.361,7.744 122.361,33.133 136.013,33.133 136.013,32.877 122.615,32.877 	"/>
	<polygon fill="#FFFFFF" points="136.18,33.301 122.191,33.301 122.191,7.578 135.966,7.578 135.966,8.168 122.782,8.168 
		122.782,19.824 135.457,19.824 135.457,20.414 122.782,20.414 122.782,32.709 136.18,32.709 	"/>
	<path fill="#FFFFFF" d="M150.856,21.869V8.129c1.068-0.168,2.776-0.34,3.929-0.34c6.482,0,8.959,2.773,8.959,7.039
		c0,4.908-4.095,7.041-8.063,7.041H150.856z M164,14.828c0-4.479-2.645-7.297-9.215-7.297c-1.369,0-3.074,0.213-4.184,0.385v25.217
		h0.255v-11.01h4.481l10.283,11.01h0.342l-10.282-11.01C159.775,22.123,164,19.949,164,14.828"/>
	<path fill="#FFFFFF" d="M151.023,21.701h4.657c3.931,0,7.894-2.123,7.894-6.873c0-4.625-2.875-6.875-8.789-6.875
		c-1.105,0-2.719,0.162-3.762,0.318V21.701z M166.348,33.301h-0.798l-0.049-0.055l-10.237-10.955h-4.241v11.01h-0.588V7.771
		l0.143-0.021c0.932-0.143,2.724-0.385,4.207-0.385c6.227,0,9.383,2.512,9.383,7.463c0,5.004-4.014,7.324-8.109,7.457
		L166.348,33.301z"/>
	<path fill="#FFFFFF" d="M179.525,21.869V8.129c1.066-0.168,2.775-0.34,3.927-0.34c6.485,0,8.962,2.773,8.962,7.039
		c0,4.908-4.098,7.041-8.064,7.041H179.525z M192.669,14.828c0-4.479-2.645-7.297-9.218-7.297c-1.366,0-3.072,0.213-4.186,0.385
		v25.217h0.259v-11.01h4.481l10.284,11.01h0.341l-10.282-11.01C188.443,22.123,192.669,19.949,192.669,14.828"/>
	<path fill="#FFFFFF" d="M179.693,21.701h4.656c3.929,0,7.895-2.123,7.895-6.873c0-4.625-2.872-6.875-8.792-6.875
		c-1.103,0-2.72,0.162-3.759,0.318V21.701z M195.015,33.301h-0.797l-0.053-0.055l-10.23-10.955h-4.242v11.01h-0.59V7.771
		l0.144-0.021c0.935-0.143,2.724-0.385,4.205-0.385c6.226,0,9.384,2.512,9.384,7.463c0,5.004-4.013,7.324-8.107,7.457
		L195.015,33.301z"/>
	<g>
		<line fill="#FFFFFF" enable-background="new    " x1="208.068" y1="33.133" x2="208.068" y2="7.744"/>
		<rect x="207.769" y="7.744" fill="#FFFFFF" width="0.6" height="25.389"/>
	</g>
	<polygon fill="#FFFFFF" points="243.011,32.92 224.408,7.533 224.15,7.533 224.15,33.133 224.408,33.133 224.408,7.961 
		243.011,33.346 243.269,33.346 243.269,7.746 243.011,7.746 	"/>
	<polygon fill="#FFFFFF" points="243.434,33.516 242.925,33.516 242.876,33.445 224.573,8.471 224.573,33.301 223.982,33.301 
		223.982,7.367 224.494,7.367 224.541,7.432 242.845,32.408 242.845,7.578 243.434,7.578 	"/>
	<path fill="#FFFFFF" d="M279.578,22.297v0.002h-7.16v0.26h7.16v8.057c-2.006,1.621-4.949,2.477-7.852,2.477
		c-6.785,0-12.332-5.078-12.332-12.631c0-7.551,5.462-12.672,12.332-12.672c2.902,0,5.717,0.98,7.766,2.604v-0.299
		c-2.133-1.623-4.822-2.561-7.766-2.561c-6.997,0-12.585,5.207-12.585,12.928c0,7.725,5.588,12.885,12.585,12.885
		c3.072,0,5.973-0.893,8.107-2.602v-8.447H279.578z"/>
	<path fill="#FFFFFF" d="M271.726,33.512c-7.391,0-12.752-5.49-12.752-13.051c0-7.588,5.361-13.094,12.752-13.094
		c2.912,0,5.637,0.896,7.865,2.594l0.066,0.049v0.727l-0.269-0.213c-2.063-1.631-4.857-2.568-7.663-2.568
		c-7.047,0-12.164,5.26-12.164,12.506c0,7.104,5.231,12.461,12.164,12.461c2.93,0,5.793-0.889,7.685-2.387v-7.811h-7.159v-0.59
		L280,22.129v8.697l-0.063,0.049C277.812,32.576,274.896,33.512,271.726,33.512"/>
	<g>
		<line fill="#FFFFFF" enable-background="new    " x1="122.388" y1="0.299" x2="135.835" y2="0.299"/>
		<rect x="122.388" fill="#FFFFFF" width="13.447" height="0.6"/>
	</g>
</g>
</svg>
