<?xml version="1.0" encoding="utf-8"?>
<!-- Generator: Adobe Illustrator 15.0.2, SVG Export Plug-In  -->
<!DOCTYPE svg PUBLIC "-//W3C//DTD SVG 1.1//EN" "http://www.w3.org/Graphics/SVG/1.1/DTD/svg11.dtd" [
	<!ENTITY ns_flows "http://ns.adobe.com/Flows/1.0/">
]>
<svg version="1.1"
	 xmlns="http://www.w3.org/2000/svg" xmlns:xlink="http://www.w3.org/1999/xlink" xmlns:a="http://ns.adobe.com/AdobeSVGViewerExtensions/3.0/"
	 x="0px" y="0px" width="115px" height="29px" viewBox="0 0 115 29" enable-background="new 0 0 115 29" xml:space="preserve">
<defs>
</defs>
<polygon fill="#FFFFFF" points="0,4.227 4.408,4.227 4.408,20.285 12.571,20.285 12.571,24.353 0,24.353 "/>
<path fill="#FFFFFF" d="M14.518,10.708h4.238v13.639h-4.238V10.708z M16.637,3.929c1.356,0,2.458,1.101,2.458,2.457
	c0,1.358-1.102,2.457-2.458,2.457c-1.355,0-2.457-1.099-2.457-2.457C14.18,5.03,15.282,3.929,16.637,3.929"/>
<polygon fill="#FFFFFF" points="36.468,4.226 40.705,4.226 40.705,16.254 45.503,10.702 50.697,10.702 45.139,17.017 50.581,24.353 
	45.255,24.353 40.76,17.611 40.705,17.611 40.705,24.353 36.468,24.353 "/>
<path fill="#FFFFFF" d="M21.099,10.71h4.068v1.864h0.057c0.564-1.073,1.949-2.203,4.011-2.203c4.294,0,5.085,2.824,5.085,6.496v7.48
	h-4.237v-6.631c0-1.583-0.029-3.616-2.204-3.616c-2.203,0-2.541,1.724-2.541,3.502v6.745h-4.238V10.71z"/>
<path fill="#FFFFFF" d="M59.616,15.942c0.028-1.413-1.074-2.599-2.601-2.599c-1.864,0-2.881,1.271-2.993,2.599H59.616z
	 M63.202,21.986c-1.357,1.724-3.586,2.713-5.791,2.713c-4.236,0-7.626-2.827-7.626-7.205c0-4.378,3.39-7.202,7.626-7.202
	c3.957,0,6.441,2.824,6.441,7.202v1.328h-9.83c0.336,1.61,1.553,2.656,3.191,2.656c1.385,0,2.316-0.707,3.022-1.667L63.202,21.986z"
	/>
<path fill="#FFFFFF" d="M72.677,14.006c-2.117,0-3.388,1.414-3.388,3.474c0,2.064,1.271,3.475,3.388,3.475
	c2.121,0,3.392-1.411,3.392-3.475C76.069,15.42,74.798,14.006,72.677,14.006 M79.968,24.345h-3.899v-1.808h-0.055
	c-0.651,0.988-2.289,2.147-4.21,2.147c-4.069,0-6.752-2.937-6.752-7.09c0-3.814,2.373-7.316,6.271-7.316
	c1.753,0,3.391,0.48,4.352,1.807h0.056V4.226h4.238V24.345z"/>
<path fill="#FFFFFF" d="M110.67,0H86.315c-1.164,0-2.109,0.922-2.109,2.06v24.457c0,1.138,0.945,2.062,2.109,2.062h24.355
	c1.166,0,2.116-0.924,2.116-2.062V2.06C112.786,0.922,111.835,0,110.67,0z M92.682,24.353h-4.239V10.714h4.239V24.353z M90.563,8.85
	c-1.358,0-2.458-1.102-2.458-2.458c0-1.355,1.1-2.457,2.458-2.457c1.355,0,2.457,1.102,2.457,2.457
	C93.02,7.749,91.919,8.85,90.563,8.85z M108.559,24.353h-4.236v-6.632c0-1.583-0.029-3.617-2.203-3.617
	c-2.206,0-2.544,1.723-2.544,3.502v6.747H95.34V10.714h4.067v1.864h0.056c0.565-1.072,1.948-2.203,4.011-2.203
	c4.292,0,5.085,2.825,5.085,6.497V24.353z"/>
<path fill="#FFFFFF" d="M114.361,23.814c0.135-0.017,0.206-0.091,0.206-0.216c0-0.153-0.092-0.227-0.282-0.227h-0.306v0.802h0.115
	v-0.349h0.142l0.003,0.004l0.219,0.345h0.123l-0.236-0.357L114.361,23.814z M114.228,23.733h-0.134v-0.271h0.17
	c0.087,0,0.188,0.014,0.188,0.129C114.451,23.723,114.35,23.733,114.228,23.733z"/>
<path fill="#FFFFFF" d="M114.241,23.014c-0.426,0-0.76,0.333-0.76,0.759c0,0.426,0.334,0.759,0.76,0.759
	c0.426,0,0.759-0.333,0.759-0.759C115,23.348,114.667,23.014,114.241,23.014z M114.241,24.433c-0.363,0-0.648-0.287-0.648-0.66
	c0-0.372,0.285-0.659,0.648-0.659s0.648,0.287,0.648,0.659C114.889,24.146,114.604,24.433,114.241,24.433z"/>
</svg>
